<?xml version="1.0" standalone="no"?>
<!DOCTYPE svg PUBLIC "-//W3C//DTD SVG 20010904//EN"
 "http://www.w3.org/TR/2001/REC-SVG-20010904/DTD/svg10.dtd">
<svg version="1.0" xmlns="http://www.w3.org/2000/svg"
 width="113.000000pt" height="113.000000pt" viewBox="0 0 113.000000 113.000000"
 preserveAspectRatio="xMidYMid meet">
<metadata>
Created by potrace 1.11, written by Peter Selinger 2001-2013
</metadata>
<g transform="translate(0.000000,113.000000) scale(0.100000,-0.100000)"
fill="#000000" stroke="none">
<path d="M525 936 c-49 -6 -99 -17 -110 -24 -18 -12 -17 -12 10 -7 17 2 46 7
65 10 183 28 206 42 35 21z"/>
<path d="M713 913 c9 -2 23 -2 30 0 6 3 -1 5 -18 5 -16 0 -22 -2 -12 -5z"/>
<path d="M596 903 c-1 -1 -26 -5 -56 -8 -30 -3 -72 -8 -92 -11 -21 -3 -52 -7
-69 -9 -18 -2 -39 -11 -48 -20 -13 -14 -14 -15 -1 -11 8 3 33 8 55 11 22 3 79
12 127 20 48 9 106 18 130 21 59 8 62 15 4 12 -26 -2 -49 -4 -50 -5z"/>
<path d="M610 859 c-57 -9 -76 -11 -227 -30 -54 -7 -97 -17 -104 -25 -6 -8 -8
-14 -3 -14 32 1 452 78 424 78 -19 0 -60 -4 -90 -9z"/>
<path d="M730 830 c-19 -4 -60 -11 -90 -14 -30 -3 -64 -8 -75 -10 -12 -2 -48
-7 -80 -11 -33 -4 -71 -9 -85 -11 -14 -2 -43 -6 -65 -9 -67 -10 -70 -10 -82
-18 -19 -12 -16 -29 5 -23 9 3 73 15 142 26 69 12 135 23 148 26 12 2 32 6 45
8 12 3 40 7 62 11 99 14 115 18 115 26 0 5 -1 9 -2 8 -2 -1 -19 -5 -38 -9z"/>
<path d="M793 833 c9 -2 23 -2 30 0 6 3 -1 5 -18 5 -16 0 -22 -2 -12 -5z"/>
<path d="M818 785 c-1 -1 -37 -6 -78 -9 -41 -4 -86 -9 -100 -11 -39 -5 -191
-26 -230 -31 -19 -3 -46 -7 -60 -9 -14 -3 -41 -7 -60 -11 -19 -3 -42 -7 -50
-9 -8 -2 -27 -4 -42 -4 -16 -1 -28 -6 -28 -12 0 -6 8 -8 18 -5 9 2 46 8 82 11
36 3 72 8 80 10 8 2 38 6 65 9 97 11 310 36 343 41 17 3 32 1 32 -4 0 -7 -20
-12 -135 -27 -16 -2 -64 -8 -105 -14 -41 -6 -95 -13 -120 -16 -25 -3 -83 -11
-130 -19 l-85 -14 75 5 c41 3 91 7 110 9 19 2 69 7 110 10 82 6 162 13 228 21
23 2 42 1 42 -4 0 -5 -26 -12 -57 -16 -32 -4 -71 -9 -88 -11 -16 -2 -48 -6
-70 -9 -250 -28 -342 -41 -350 -49 -7 -7 -7 -8 0 -5 6 3 51 9 100 13 50 4 110
8 135 10 25 2 83 6 130 10 47 3 112 8 145 11 104 10 48 -12 -65 -25 -58 -7
-118 -14 -135 -16 -144 -18 -182 -22 -227 -26 -20 -2 -34 -7 -32 -11 3 -5 8
-6 12 -4 4 2 57 7 117 10 61 4 126 9 145 11 81 9 245 17 239 11 -9 -9 -52 -16
-209 -32 -36 -4 -132 -15 -215 -25 l-150 -17 115 4 c138 5 290 13 383 19 37 3
67 1 67 -4 0 -8 -36 -12 -205 -27 -33 -3 -76 -7 -95 -10 -19 -2 -66 -7 -105
-10 -132 -11 -80 -16 85 -9 91 4 200 9 243 10 43 2 77 0 77 -6 0 -5 -6 -9 -12
-10 -7 -1 -24 -2 -38 -4 -14 -1 -70 -5 -125 -9 -55 -3 -127 -8 -160 -11 -33
-3 -94 -7 -135 -10 -41 -3 -110 -7 -153 -10 l-77 -6 -1 28 c-4 71 -5 82 -12
89 -4 4 -7 -20 -7 -54 0 -34 -1 -65 -2 -69 -2 -5 16 -9 40 -11 49 -4 47 -22
-3 -22 -19 0 -37 -5 -41 -12 -4 -7 -3 -8 5 -4 15 10 75 -4 64 -14 -4 -5 -21
-10 -38 -13 l-30 -4 31 -2 c17 0 37 -8 44 -16 10 -12 6 -16 -22 -24 -30 -9
181 -7 432 4 36 2 175 4 309 4 210 1 242 3 226 15 -18 13 -18 14 1 24 10 5 23
10 27 10 5 0 11 3 14 6 4 3 -30 6 -74 6 l-81 0 -6 33 c-3 18 -16 38 -27 46
-19 11 -25 10 -47 -6 -15 -11 -30 -33 -34 -49 -7 -29 -10 -30 -73 -32 -58 -2
-65 0 -65 17 0 11 -3 27 -6 36 -4 9 -3 15 2 14 5 -1 32 -1 60 0 l52 1 7 83 c7
85 9 104 20 174 l7 42 51 6 c29 3 71 7 95 10 45 3 70 14 36 16 -10 0 -28 2
-39 4 -28 6 -163 14 -167 10z m-234 -344 c-14 -14 -154 -25 -154 -12 0 5 17
11 38 13 92 8 125 7 116 -1z m-186 -65 c-2 -23 -9 -32 -25 -34 -30 -4 -40 31
-18 64 13 21 19 23 31 13 9 -7 14 -25 12 -43z m268 27 c8 -28 -6 -58 -26 -58
-21 0 -39 37 -29 63 12 32 47 29 55 -5z m251 15 c12 -15 9 -46 -7 -62 -13 -13
-44 4 -48 28 -7 35 35 60 55 34z m-629 -10 c30 -30 -1 -94 -33 -68 -25 20 -13
80 15 80 3 0 11 -5 18 -12z m-94 -20 c8 -32 8 -35 -10 -53 -12 -12 -19 -13
-30 -4 -17 14 -18 33 -4 60 14 26 36 24 44 -3z m372 10 c4 -5 3 -8 -2 -8 -5
-1 -35 -3 -66 -7 -47 -4 -58 -3 -58 10 0 11 13 14 59 13 33 0 63 -4 67 -8z m8
-37 c5 -1 7 -4 4 -7 -11 -10 -148 -17 -148 -7 0 5 3 12 6 15 4 5 84 4 138 -1z"/>
<path d="M116 681 c-3 -4 6 -6 19 -3 14 2 25 6 25 8 0 8 -39 4 -44 -5z"/>
<path d="M922 681 c-5 -3 -11 -21 -14 -40 -4 -30 -2 -35 28 -47 30 -12 120
-28 169 -29 17 0 20 6 17 35 -1 19 -5 48 -8 63 l-6 28 -89 -2 c-49 -2 -93 -5
-97 -8z"/>
<path d="M78 673 c7 -3 16 -2 19 1 4 3 -2 6 -13 5 -11 0 -14 -3 -6 -6z"/>
<path d="M970 541 c9 -5 46 -14 83 -19 51 -6 67 -6 67 4 0 15 -21 20 -100 22
-44 2 -60 -1 -50 -7z"/>
<path d="M970 506 c0 -6 54 -20 113 -31 29 -5 37 -3 37 10 0 10 -10 15 -32 16
-18 0 -52 2 -75 5 -24 3 -43 3 -43 0z"/>
<path d="M970 466 c0 -6 56 -21 113 -31 29 -5 37 -3 37 10 0 8 -8 15 -17 16
-10 0 -44 3 -75 5 -32 3 -58 2 -58 0z"/>
<path d="M985 421 c6 -5 36 -14 68 -19 46 -7 57 -6 57 5 0 7 -8 13 -17 14 -10
0 -40 2 -68 5 -33 3 -47 2 -40 -5z"/>
<path d="M937 293 c-3 -2 -431 -12 -546 -12 -52 -1 -92 -4 -88 -7 3 -4 158 -8
344 -11 318 -3 339 -3 361 15 l24 18 -47 0 c-26 -1 -47 -2 -48 -3z"/>
<path d="M268 273 c7 -3 16 -2 19 1 4 3 -2 6 -13 5 -11 0 -14 -3 -6 -6z"/>
<path d="M320 240 c-12 -7 -10 -9 7 -7 12 0 19 5 17 9 -6 10 -6 10 -24 -2z"/>
<path d="M368 238 c4 -3 95 -9 202 -13 107 -3 211 -8 231 -11 22 -2 43 2 55
11 17 13 11 14 -61 15 -44 1 -160 2 -257 3 -97 1 -174 -1 -170 -5z"/>
<path d="M263 203 c9 -2 23 -2 30 0 6 3 -1 5 -18 5 -16 0 -22 -2 -12 -5z"/>
<path d="M315 200 c3 -5 8 -10 11 -10 2 0 4 5 4 10 0 6 -5 10 -11 10 -5 0 -7
-4 -4 -10z"/>
<path d="M348 199 c6 -6 75 -12 303 -25 47 -2 71 1 85 11 17 13 3 14 -126 16
-80 0 -173 2 -207 3 -35 1 -59 -1 -55 -5z"/>
</g>
</svg>
